<?xml version="1.0" standalone="no"?>
<!DOCTYPE svg PUBLIC "-//W3C//DTD SVG 20010904//EN"
 "http://www.w3.org/TR/2001/REC-SVG-20010904/DTD/svg10.dtd">
<svg version="1.0" xmlns="http://www.w3.org/2000/svg"
 width="1119.000000pt" height="238.000000pt" viewBox="0 0 1119.000000 238.000000"
 preserveAspectRatio="xMidYMid meet">

<g transform="translate(0.000000,238.000000) scale(0.100000,-0.100000)"
fill="#000000" stroke="none">
<path d="M5320 2336 c-312 -45 -587 -169 -755 -340 -118 -120 -171 -247 -163
-392 4 -75 9 -91 57 -189 36 -72 69 -122 102 -155 27 -27 49 -54 49 -60 0 -17
-87 -340 -130 -483 -22 -71 -42 -149 -46 -173 -6 -43 -6 -43 62 -109 219 -209
513 -326 895 -356 454 -36 891 89 1150 328 231 214 242 519 27 740 l-51 52 87
363 87 363 -78 75 c-43 41 -104 92 -135 113 -141 93 -331 168 -523 208 -132
27 -493 35 -635 15z"/>
<path d="M55 2308 c-3 -7 -4 -515 -3 -1128 l3 -1115 448 -3 447 -2 0 311 0
311 23 -6 c208 -61 451 -41 632 51 356 181 535 580 435 968 -82 320 -351 563
-680 615 -101 16 -1299 14 -1305 -2z"/>
<path d="M3061 2289 c-192 -22 -409 -110 -556 -224 -189 -145 -354 -448 -386
-705 -14 -118 -6 -296 20 -410 48 -215 120 -359 235 -472 103 -101 248 -206
356 -257 545 -259 1184 -32 1451 514 141 289 141 649 -1 941 -165 340 -481
567 -853 614 -93 11 -160 11 -266 -1z"/>
<path d="M6988 2283 c-25 -4 -27 -7 -30 -71 -2 -37 -2 -533 0 -1102 3 -873 6
-1037 17 -1046 10 -7 124 -11 360 -10 296 1 347 3 355 16 6 9 10 207 10 488
l0 472 145 0 145 0 2 -487 3 -488 358 -5 c197 -3 361 -3 363 -1 7 7 5 2188 -2
2205 -5 14 -47 16 -364 16 -328 0 -358 -1 -364 -17 -4 -9 -6 -231 -5 -493 l2
-475 -142 -3 -141 -3 0 488 c0 269 -4 493 -8 499 -7 11 -641 26 -704 17z"/>
<path d="M9847 2224 c-425 -77 -769 -411 -865 -842 -13 -57 -17 -120 -16 -242
1 -205 24 -308 109 -475 199 -395 603 -629 1040 -601 189 12 362 68 510 164
267 175 433 418 490 716 18 94 21 323 5 406 -41 217 -132 390 -293 557 -169
176 -359 279 -586 318 -104 18 -290 18 -394 -1z"/>
</g>
</svg>
